<svg id="Layer_1" data-name="Layer 1" xmlns="http://www.w3.org/2000/svg" viewBox="0 0 472.97 389.61"><defs><style>.cls-1{fill:#77c259;}.cls-2{fill:#fff;}</style></defs><title>logoBash</title><path class="cls-1" d="M20.76,249.5c3.65-18.35,22.58-40.19,28.68-47.22,11.64-13.42,31.31-31.62,31.31-31.62h0c26.07,4.21,53.92,9.71,83.23,16.89,36.81,9,70.43,19.36,100.64,30-22.41,20.1-47.52,41-75.48,61.95A1124,1124,0,0,1,94.3,343.36C46.48,316.55,14.78,279.53,20.76,249.5Z" transform="translate(-20.03 -52.39)"/><path class="cls-2" d="M274.29,275.78" transform="translate(-20.03 -52.39)"/><path class="cls-1" d="M53.66,163.15c90.14-24.55,148.18-12.4,185.8,5.63C287.07,191.6,335.72,240,378.8,223.22a53.56,53.56,0,0,0,15.49-9.39l-40.65-43.17a34.46,34.46,0,0,1-9.67,7.5,37.1,37.1,0,0,1-21.29,3.76c-32.57-9.16-42.89-22.09-46.45-31.91-7.41-20.43,11.43-35.62,1.93-56.32-8.61-18.77-32.56-24.75-38.7-26.28-1.7-.42-27.69-6.49-52.26,7.51-9,5.15-11.13,9.17-22,19.94C128.32,131.4,87.44,149.47,73,155.64Q63.23,159.83,53.66,163.15Z" transform="translate(-20.03 -52.39)"/><ellipse class="cls-1" cx="302.64" cy="82.6" rx="30.97" ry="30.03"/><path class="cls-1" d="M239.46,285.16,284,225c21.7,25.83,56.17,37,87.09,28.28,31.14-8.73,50.31-48.35,52.26-46.93,1,.77-6.42,10.49-11.61,28.16-.87,2.94-1.49,5.5-1.94,7.51q-1,16.89-1.93,33.79A329.5,329.5,0,0,1,373,317.08,334.92,334.92,0,0,1,336.23,349a117.66,117.66,0,0,1,0,28.16c-4.07,33.37-22.06,59.37-25.16,58.19-3.39-1.3,17.84-33,11.61-77-2.82-19.91-6.79-47.92-31-63.82C271.4,281.19,248.06,283.77,239.46,285.16Z" transform="translate(-20.03 -52.39)"/><path class="cls-1" d="M65.27,373.39A268.37,268.37,0,0,0,175.59,339.6a257.48,257.48,0,0,0,56.12-43.17c7.95,3.4,27,12.83,40.65,33.79,4.75,7.32,16.24,25,13.55,48.8-4,35.31-35.64,52.9-37.91,54.11-21.46,11.47-42.38,8.95-49.19,7.84-20.78-5-32.15-13.61-38.7-20.65-2.25-2.41-5.59-6.87-12.27-15.79-15-20-15.26-22.66-20.64-25.51-7.86-4.15-12.62-1.33-31-1.87A171.06,171.06,0,0,1,65.27,373.39Z" transform="translate(-20.03 -52.39)"/><path class="cls-1" d="M359.45,58a144.94,144.94,0,0,0,3.87,35.67,146.62,146.62,0,0,0,11.61,31.91L409.77,120a146.62,146.62,0,0,1-11.61-31.91,145,145,0,0,1-3.87-35.67Z" transform="translate(-20.03 -52.39)"/><ellipse class="cls-2" cx="359.25" cy="26.75" rx="8.23" ry="7.98"/><path class="cls-1" d="M423.42,155.64l11.51-30a67.16,67.16,0,0,0,31,18.77A68,68,0,0,0,493,146.22a52.31,52.31,0,0,1-3.87,20.68A53,53,0,0,1,481.38,180a138.51,138.51,0,0,1-27.09-7.51A136.81,136.81,0,0,1,423.42,155.64Z" transform="translate(-20.03 -52.39)"/><ellipse class="cls-2" cx="449.73" cy="108.88" rx="5.81" ry="5.63"/><path class="cls-1" d="M423.42,105V84.31l13.45-5.17a26.83,26.83,0,0,1,3.87,16.43,26.37,26.37,0,0,1-3.87,11.26Z" transform="translate(-20.03 -52.39)"/><ellipse class="cls-2" cx="412.12" cy="37.66" rx="3.02" ry="2.93"/></svg>